<svg width="163" height="38" viewBox="0 0 163 38" fill="none" xmlns="http://www.w3.org/2000/svg">
<g clip-path="url(#clip0_7077_4828)">
<path fill-rule="evenodd" clip-rule="evenodd" d="M0 9.60966L4.0308 12.0797L15.6018 5.5389L26.8564 12.0797V17.5729L15.6018 10.8723L11.3028 13.6394L31.4456 25.4834V9.60966L15.6018 0.5L0 9.60966Z" fill="#FF9748"/>
<path fill-rule="evenodd" clip-rule="evenodd" d="M15.6016 5.53888L31.4453 9.60964V25.4834L15.6016 10.8723L26.8561 17.5729V12.0797L15.6016 5.53888Z" fill="#F86B00"/>
<path fill-rule="evenodd" clip-rule="evenodd" d="M0 12.0797L20.0414 23.8382L15.7228 26.6237L4.37306 20.1059V25.4835L15.7228 32.0553L26.9088 25.4835L31.4456 27.9373L15.7228 37.072L0 27.9373V12.0797Z" fill="white"/>
<path fill-rule="evenodd" clip-rule="evenodd" d="M0 12.0797L15.7228 26.6237L20.0414 23.8382L0 12.0797Z" fill="#DDDDDD"/>
<path fill-rule="evenodd" clip-rule="evenodd" d="M0 27.9373L15.7228 32.0553L31.4456 27.9373L15.7228 37.072L0 27.9373Z" fill="#DDDDDD"/>
<path fill-rule="evenodd" clip-rule="evenodd" d="M0 9.60964L4.0308 12.0797L15.6018 5.53888L0 9.60964Z" fill="#F86B00"/>
<path d="M51.336 28.92C50.1413 28.92 48.956 28.808 47.78 28.584C46.604 28.36 45.6427 28.0613 44.896 27.688V23.936C45.8853 24.4213 46.912 24.7853 47.976 25.028C49.04 25.2707 50.0573 25.392 51.028 25.392C52.1107 25.392 52.932 25.2053 53.492 24.832C54.052 24.4587 54.332 23.936 54.332 23.264C54.332 22.7787 54.192 22.368 53.912 22.032C53.632 21.696 53.2213 21.3973 52.68 21.136C52.1573 20.856 51.3453 20.492 50.244 20.044C48.4147 19.2973 47.0893 18.4667 46.268 17.552C45.4467 16.6187 45.036 15.4707 45.036 14.108C45.036 13.0067 45.3347 12.036 45.932 11.196C46.5293 10.3373 47.3693 9.67466 48.452 9.208C49.5347 8.74133 50.7853 8.508 52.204 8.508C53.3613 8.508 54.388 8.60133 55.284 8.788C56.18 8.97466 57.0573 9.264 57.916 9.656V13.296C56.2733 12.4747 54.6307 12.064 52.988 12.064C51.9427 12.064 51.1213 12.2507 50.524 12.624C49.9267 12.9787 49.628 13.492 49.628 14.164C49.628 14.6493 49.768 15.0507 50.048 15.368C50.328 15.6853 50.72 15.9653 51.224 16.208C51.728 16.4507 52.5493 16.8053 53.688 17.272C55.0133 17.832 56.0493 18.3733 56.796 18.896C57.5427 19.4 58.0933 20.0067 58.448 20.716C58.8027 21.4067 58.98 22.2653 58.98 23.292C58.98 25.0653 58.336 26.4467 57.048 27.436C55.7787 28.4253 53.8747 28.92 51.336 28.92Z" fill="white"/>
<path d="M71.8421 28.92C69.8821 28.92 68.0994 28.4907 66.4941 27.632C64.9074 26.7733 63.6567 25.5787 62.7421 24.048C61.8274 22.4987 61.3701 20.7253 61.3701 18.728C61.3701 16.7307 61.8274 14.9573 62.7421 13.408C63.6567 11.8587 64.9074 10.6547 66.4941 9.796C68.0994 8.93733 69.8821 8.508 71.8421 8.508C73.8021 8.508 75.5661 8.93733 77.1341 9.796C78.7207 10.6547 79.9714 11.8587 80.8861 13.408C81.8007 14.9573 82.2581 16.7307 82.2581 18.728C82.2581 20.7253 81.8007 22.4987 80.8861 24.048C79.9714 25.5787 78.7207 26.7733 77.1341 27.632C75.5661 28.4907 73.8021 28.92 71.8421 28.92ZM71.8421 25C72.9621 25 73.9794 24.748 74.8941 24.244C75.8274 23.7213 76.5647 22.9933 77.1061 22.06C77.6474 21.108 77.9181 19.9973 77.9181 18.728C77.9181 17.4773 77.6474 16.3853 77.1061 15.452C76.5834 14.5 75.8554 13.772 74.9221 13.268C74.0074 12.7453 72.9807 12.484 71.8421 12.484C70.6847 12.484 69.6394 12.7453 68.7061 13.268C67.7914 13.772 67.0634 14.5 66.5221 15.452C65.9807 16.3853 65.7101 17.4773 65.7101 18.728C65.7101 19.9973 65.9807 21.108 66.5221 22.06C67.0634 22.9933 67.8007 23.7213 68.7341 24.244C69.6674 24.748 70.7034 25 71.8421 25Z" fill="white"/>
<path d="M85.158 8.928H98.738V12.512H89.414V17.076H96.274V20.352H89.414V28.5H85.158V8.928Z" fill="white"/>
<path d="M105.761 12.484H100.049V8.928H115.729V12.484H110.017V28.5H105.761V12.484Z" fill="white"/>
<path d="M118.161 8.928H122.417V17.44L129.809 8.928H134.877L126.589 18.476L135.437 28.5H130.369L122.417 19.512V28.5H118.161V8.928Z" fill="white"/>
<path d="M138.354 8.928H142.61V28.5H138.354V8.928Z" fill="white"/>
<path d="M150.781 12.484H145.069V8.928H160.749V12.484H155.037V28.5H150.781V12.484Z" fill="white"/>
</g>
<defs>
<clipPath id="clip0_7077_4828">
<rect width="163" height="37" fill="white" transform="translate(0 0.5)"/>
</clipPath>
</defs>
</svg>
